<?xml version="1.0" encoding="utf-8"?>
<!-- Generator: Adobe Illustrator 19.0.0, SVG Export Plug-In . SVG Version: 6.00 Build 0)  -->
<svg version="1.1" id="Layer_1" xmlns="http://www.w3.org/2000/svg" xmlns:xlink="http://www.w3.org/1999/xlink" x="0px" y="0px"
	 viewBox="0 0 400 200" style="enable-background:new 0 0 400 200;" xml:space="preserve">
<style type="text/css">
	.st0{opacity:0.25;fill:#FFFFFF;}
</style>
<path id="XMLID_152_" class="st0" d="M336.3,88.8c-1.6,4.2-5.1,4.2-9,3.9c0,0.8,0,1.4,0,2.1c0,14.6,0,29.2,0,43.8
	c0,4.5-3.7,7.4-7.9,6.3c-2.7-0.7-4.2-2.8-4.2-6.1c0-9.7,0-19.3,0-29c0-5,0-10.1,0-15.1c0-0.5,0-1.1,0-1.8c-1.3,0-2.4,0-3.5,0
	c-3.1-0.1-5.6-2.4-5.7-5.1c-0.1-2.9,2-5.2,5.2-5.5c1.2-0.1,2.5,0,4.1,0c0-0.7,0-1.2,0-1.7c0-3.5,0-7,0-10.5c0-3.3,2-5.5,5.1-5.7
	c3.8-0.3,6.4,1.4,6.8,4.8c0.3,2.2,0.1,4.5,0.2,6.7c0,2,0,4,0,6.3c3.7-0.1,7.5-0.3,9,4.2C336.3,87,336.3,87.9,336.3,88.8z"/>
<path id="XMLID_149_" class="st0" d="M261.4,139.3c-4.5,4.9-10.3,6.2-16.5,5.6c-12.5-1.2-20-8.4-23.5-20.1
	c-3.3-11.1-2.2-21.8,4-31.7c6-9.5,16.7-13.7,26.9-10.8c3,0.8,5.7,2.3,8,4.4c0.3,0.3,0.7,0.6,1.3,1.1c0-0.9,0-1.5,0-2
	c0-8.2,0-16.5,0-24.7c0-4.9,4.7-7.6,9-5.3c1.6,0.9,2.6,2.2,2.8,4c0.1,0.8,0.2,1.5,0.2,2.3c0,25.3,0,50.7,0,76c0,3.7-1.5,5.8-4.4,6.7
	C265.5,145.8,262.5,143.7,261.4,139.3z M262.6,112.8c0.1-4.4-0.8-8.6-2.8-12.5c-2.7-5.1-6.8-8.2-12.7-8.2c-6,0-10.1,3.1-12.5,8.3
	c-4,8.6-4,17.4,0,26c1.6,3.4,4,6,7.7,7.1c7.8,2.4,15.3-1.4,18.2-9.2C262,120.6,262.6,116.8,262.6,112.8z"/>
<path id="XMLID_146_" class="st0" d="M198.8,87.2c0-3.3,0-6.8,0-10.2c0-5.2,0-10.4,0-15.6c0-5.9,5.7-7.7,9.3-5.5
	c1.7,1,2.5,2.6,2.7,4.4c0,0.4,0,0.8,0,1.2c0,25.7,0,51.4,0,77.2c0,3.1-1.4,5.2-4.1,6.1c-3.5,1.2-6.9-0.8-7.8-4.4
	c-0.1-0.3-0.2-0.5-0.3-0.9c-2.9,3.1-6.5,4.9-10.6,5.4c-12.8,1.6-23.6-4.6-28.3-16.6c-4.9-12.8-4.1-25.2,4-36.6
	c6.4-9,18-12.5,27.5-8.6C193.9,83.9,196.2,85.7,198.8,87.2z M169,114c0.1,1.2,0.2,3,0.4,4.7c0.5,3.5,1.7,6.8,3.6,9.8
	c5.2,8.1,17.5,7.8,23-0.5c2-3.1,3-6.6,3.5-10.2c0.9-6.6,0.3-12.9-3.2-18.7c-5.6-9.3-18-9.3-23.7-0.1C170,103.4,169.1,108.3,169,114z
	"/>
<path id="XMLID_143_" class="st0" d="M109.6,118.1c-0.2,6.1,3.4,13.4,11.5,15.5c7.1,1.8,13.6,0.3,19.4-4c1-0.7,2-1.5,3.1-2.2
	c1.8-1.2,3.7-1.6,5.5-0.2c1.8,1.5,2.4,3.6,1.6,5.8c-0.5,1.4-1.3,2.8-2.4,3.8c-4.8,4.4-10.5,6.9-16.9,7.8c-8.3,1.2-16.1,0.1-22.9-5.2
	c-5.6-4.4-8.7-10.3-10.3-17.1c-2.5-10.4-0.6-20.2,5.2-29c10.9-16.4,33.7-15.7,43.9,1.1c3.3,5.4,4.9,11.2,4.9,17.5
	c0,4.1-2.1,6.2-6.2,6.2c-11.6,0-23.2,0-34.7,0C110.7,118.1,110.2,118.1,109.6,118.1z M140.2,108.4c-0.4-6-2.2-11.3-7.5-14.3
	c-5.4-3.1-11-2.8-16.2,0.5c-4.9,3.1-6.6,8.1-7,13.8C119.7,108.4,129.8,108.4,140.2,108.4z"/>
<path id="XMLID_142_" class="st0" d="M77.6,89.1c1.9-1.8,3.6-3.6,5.6-5.1c2.3-1.8,5.1-2.9,8.1-2.4c3.9,0.5,6.5,4.2,5.2,7.9
	c-0.4,1.3-1.6,2.6-2.8,3.2c-1.9,1-4.2,1.7-6.3,2.3c-5.4,1.6-9.2,6-9.6,11.7c-0.3,4.5-0.2,9.1-0.3,13.6c-0.1,6.4,0,12.8-0.1,19.3
	c0,2.7-1.6,4.6-4.1,5.3c-3.7,1-7.2-1.4-7.7-5.3c0-0.3,0-0.7,0-1c0-16.8,0-33.7,0-50.5c0-2.2,0.7-4.1,2.6-5.4c4-2.6,9-0.1,9.2,4.7
	C77.6,87.8,77.6,88.4,77.6,89.1z"/>
<path id="XMLID_141_" class="st0" d="M297.1,113.1c0,8.4,0,16.8,0,25.2c0,3.3-1.4,5.5-4.1,6.4c-3.5,1.2-7.2-1.1-7.7-4.7
	c-0.1-0.5-0.1-1.1-0.1-1.6c0-16.8,0-33.6,0-50.3c0-1.9,0.3-3.6,1.7-5c1.7-1.6,3.6-2.2,5.9-1.5c2.2,0.7,3.6,2.2,4.1,4.5
	c0.2,0.9,0.2,1.7,0.2,2.6C297.1,96.8,297.1,105,297.1,113.1z"/>
<path id="XMLID_138_" class="st0" d="M291.1,77.2c-6,0-11-5-11-11c0-6,5.1-11,11.1-10.9c5.9,0.1,10.9,5,10.9,10.9
	C302.1,72.2,297.1,77.2,291.1,77.2z M291,61c-3,0-5.3,2.4-5.3,5.3c0,2.9,2.4,5.2,5.2,5.3c2.9,0,5.4-2.4,5.4-5.3
	C296.4,63.4,294,61,291,61z"/>
</svg>
